HIERARCHY
ROOT Hips
{
	OFFSET 0.000000 0.000000 0.000000
	CHANNELS 6 Xposition Yposition Zposition Zrotation Yrotation Xrotation 
	JOINT LHipJoint
	{
		OFFSET 0.000000 0.000000 0.000000
		CHANNELS 3 Zrotation Yrotation Xrotation
		JOINT LeftUpLeg
		{
			OFFSET 1.363060 -1.794630 0.839290
			CHANNELS 3 Zrotation Yrotation Xrotation
			JOINT LeftLeg
			{
				OFFSET 2.448110 -6.726130 0.000000
				CHANNELS 3 Zrotation Yrotation Xrotation
				JOINT LeftFoot
				{
					OFFSET 2.562200 -7.039590 0.000000
					CHANNELS 3 Zrotation Yrotation Xrotation
					JOINT LeftToeBase
					{
						OFFSET 0.157640 -0.433110 2.322550
						CHANNELS 3 Zrotation Yrotation Xrotation
						End Site
						{
							OFFSET 0.000000 0.000000 0.000000
						}
					}
				}
			}
		}
	}
	JOINT RHipJoint
	{
		OFFSET 0.000000 0.000000 0.000000
		CHANNELS 3 Zrotation Yrotation Xrotation
		JOINT RightUpLeg
		{
			OFFSET -1.305520 -1.794630 0.839290
			CHANNELS 3 Zrotation Yrotation Xrotation
			JOINT RightLeg
			{
				OFFSET -2.542530 -6.985550 0.000000
				CHANNELS 3 Zrotation Yrotation Xrotation
				JOINT RightFoot
				{
					OFFSET -2.568260 -7.056230 0.000000
					CHANNELS 3 Zrotation Yrotation Xrotation
					JOINT RightToeBase
					{
						OFFSET -0.164730 -0.452590 2.363150
						CHANNELS 3 Zrotation Yrotation Xrotation
						End Site
						{
							OFFSET 0.000000 0.000000 0.000000
						}
					}
				}
			}
		}
	}
	JOINT LowerBack
	{
		OFFSET 0.000000 0.000000 0.000000
		CHANNELS 3 Zrotation Yrotation Xrotation
		JOINT Spine
		{
			OFFSET 0.028270 2.035590 -0.193380
			CHANNELS 3 Zrotation Yrotation Xrotation
			JOINT Spine1
			{
				OFFSET 0.056720 2.048850 -0.042750
				CHANNELS 3 Zrotation Yrotation Xrotation
				JOINT Neck
				{
					OFFSET 0.000000 0.000000 0.000000
					CHANNELS 3 Zrotation Yrotation Xrotation
					JOINT Neck1
					{
						OFFSET -0.054170 1.746240 0.172020
						CHANNELS 3 Zrotation Yrotation Xrotation
						JOINT Head
						{
							OFFSET 0.104070 1.761360 -0.123970
							CHANNELS 3 Zrotation Yrotation Xrotation
							End Site
							{
								OFFSET 0.000000 0.000000 0.000000
							}
						}
					}
				}
				JOINT LeftShoulder
				{
					OFFSET 0.000000 0.000000 0.000000
					CHANNELS 3 Zrotation Yrotation Xrotation
					JOINT LeftArm
					{
						OFFSET 3.362410 1.200890 -0.311210
						CHANNELS 3 Zrotation Yrotation Xrotation
						JOINT LeftForeArm
						{
							OFFSET 4.983000 -0.000000 -0.000000
							CHANNELS 3 Zrotation Yrotation Xrotation
							JOINT LeftHand
							{
								OFFSET 3.483560 -0.000000 -0.000000
								CHANNELS 3 Zrotation Yrotation Xrotation
								JOINT LeftFingerBase
								{
									OFFSET 0.000000 0.000000 0.000000
									CHANNELS 3 Zrotation Yrotation Xrotation
									JOINT LeftHandIndex1
									{
										OFFSET 0.715260 -0.000000 -0.000000
										CHANNELS 3 Zrotation Yrotation Xrotation
										End Site
										{
											OFFSET 0.000000 0.000000 0.000000
										}
									}
								}
								JOINT LThumb
								{
									OFFSET 0.000000 0.000000 0.000000
									CHANNELS 3 Zrotation Yrotation Xrotation
									End Site
									{
										OFFSET 0.000000 0.000000 0.000000
									}
								}
							}
						}
					}
				}
				JOINT RightShoulder
				{
					OFFSET 0.000000 0.000000 0.000000
					CHANNELS 3 Zrotation Yrotation Xrotation
					JOINT RightArm
					{
						OFFSET -3.136600 1.374050 -0.404650
						CHANNELS 3 Zrotation Yrotation Xrotation
						JOINT RightForeArm
						{
							OFFSET -5.241900 -0.000000 -0.000000
							CHANNELS 3 Zrotation Yrotation Xrotation
							JOINT RightHand
							{
								OFFSET -3.444170 -0.000000 -0.000000
								CHANNELS 3 Zrotation Yrotation Xrotation
								JOINT RightFingerBase
								{
									OFFSET 0.000000 0.000000 0.000000
									CHANNELS 3 Zrotation Yrotation Xrotation
									JOINT RightHandIndex1
									{
										OFFSET -0.622530 -0.000000 -0.000000
										CHANNELS 3 Zrotation Yrotation Xrotation
										End Site
										{
											OFFSET 0.000000 0.000000 0.000000
										}
									}
								}
								JOINT RThumb
								{
									OFFSET 0.000000 0.000000 0.000000
									CHANNELS 3 Zrotation Yrotation Xrotation
									End Site
									{
										OFFSET 0.000000 0.000000 0.000000
									}
								}
							}
						}
					}
				}
			}
		}
	}
}
MOTION
Frames: 5
Frame Time: 0.008333
1.037579 17.141990 1.848570 17.010613 -28.071842 -5.158301 -8.049948 0.517580 7.559096 -18.904328 -25.117035 -7.524257 -4.732800 -0.908216 0.264171 -1.464843 -12.546682 11.872491 -3.098400 0.000000 -40.640200 12.322879 -0.201757 -5.227917 -18.847378 -39.330631 8.962321 -0.283980 -0.026395 2.955498 -4.758548 -28.930671 6.152824 -8.655400 0.000000 -62.742600 -2.948754 2.151470 -3.869510 -0.171290 2.496887 -4.038791 0.695138 2.408494 -3.157141 -10.629567 10.057215 1.721547 -1.257801 -0.225212 2.562574 0.000000 0.000000 0.000000 -1.609394 7.733880 -8.842533 -96.731120 -61.081763 44.550937 178.703979 -76.153781 179.837354 11.114912 -5.333062 -0.606861 -0.042749 0.868140 -0.000000 0.000000 0.000000 0.000000 0.000000 0.000000 0.000000 -12.865150 14.993922 5.023058 3.588236 12.388005 -67.475230 -1.716650 -2.327940 -0.118357 -22.822944 8.674866 -1.892005 0.473147 -0.493613 0.000000 0.000000 0.000000 0.000000 0.000000 0.000000 0.000000 
1.022712 17.149948 1.838836 17.134678 -28.093897 -5.211279 -8.081713 0.444925 7.531998 -18.868236 -25.209563 -7.546749 -4.734550 -0.905851 0.358810 -1.464491 -12.460536 11.995025 -3.090000 0.000000 -40.614300 12.307492 -0.208375 -5.205764 -18.672633 -39.114159 8.677214 -0.309584 -0.061769 3.211879 -4.864462 -29.408734 5.983894 -8.744701 0.000000 -62.204200 -2.892003 2.406424 -3.804299 -0.090311 2.753521 -4.009310 1.023201 2.658515 -3.124933 -11.487810 10.261555 1.512695 -1.032571 -0.209630 2.515497 0.000000 0.000000 0.000000 -2.206435 8.186933 -8.875315 -96.907258 -60.501868 44.306119 178.631161 -75.608786 179.838940 11.016769 -5.389578 -0.606004 -0.033608 0.861727 -0.000000 0.000000 0.000000 0.000000 0.000000 0.000000 0.000000 -14.703191 15.326586 4.991959 1.810042 11.798205 -69.094070 -1.778958 -3.447736 -0.118163 -23.551719 7.735728 -1.751121 0.521021 -0.474403 0.000000 0.000000 0.000000 0.000000 0.000000 0.000000 0.000000 
1.005315 17.157475 1.828698 17.209355 -28.036670 -5.229104 -8.091699 0.382200 7.531104 -18.793224 -25.386502 -7.587456 -4.736244 -0.900269 0.465654 -1.466125 -12.417890 12.123102 -3.096099 0.000000 -40.636900 12.304997 -0.212915 -5.207027 -18.536585 -39.074423 8.455172 -0.317587 -0.086582 3.401288 -4.949386 -29.813924 5.848312 -8.820500 0.000000 -61.699400 -2.904827 2.624407 -3.747255 -0.030840 2.977664 -3.981902 1.306929 2.874883 -3.099247 -12.200315 10.114315 1.326948 -0.799168 -0.193996 2.476092 0.000000 0.000000 0.000000 -2.662730 8.480485 -8.939552 -97.259540 -59.861006 44.170351 178.555215 -75.042713 179.840139 10.919770 -5.481528 -0.608730 -0.024848 0.857585 -0.000000 0.000000 0.000000 0.000000 0.000000 0.000000 0.000000 -16.538895 15.340446 4.910795 1.022812 11.293212 -70.542845 -1.883700 -2.766930 -0.122670 -23.944756 6.575288 -1.527529 0.557187 -0.461315 0.000000 0.000000 0.000000 0.000000 0.000000 0.000000 0.000000 
0.985699 17.164578 1.818574 17.237497 -27.914490 -5.217752 -8.084048 0.332552 7.559026 -18.681393 -25.643266 -7.636976 -4.736444 -0.891867 0.566953 -1.468181 -12.401692 12.255067 -3.112300 0.000000 -40.692900 12.309821 -0.213694 -5.234986 -18.452326 -39.231808 8.307683 -0.305663 -0.099071 3.509547 -5.005471 -30.110704 5.765290 -8.880000 0.000000 -61.278600 -2.962268 2.787353 -3.705517 0.017464 3.150994 -3.950780 1.574546 3.039543 -3.044852 -12.823868 9.658208 1.142445 -0.577887 -0.179081 2.436812 0.000000 0.000000 0.000000 -3.036068 8.673294 -9.035477 -97.694766 -59.194804 44.060553 178.470687 -74.440216 179.840969 10.838780 -5.586195 -0.613455 -0.016342 0.854129 -0.000000 0.000000 0.000000 0.000000 0.000000 0.000000 0.000000 -18.230818 15.017986 4.843321 0.045107 11.288032 -72.532041 -1.997368 -2.543475 -0.123990 -23.980005 6.608865 -1.540834 0.581685 -0.471832 0.000000 0.000000 0.000000 0.000000 0.000000 0.000000 0.000000 
0.964543 17.171414 1.808889 17.220601 -27.747543 -5.182687 -8.063267 0.296806 7.614340 -18.534101 -25.968378 -7.685283 -4.733962 -0.881736 0.649189 -1.469178 -12.387996 12.387529 -3.131100 0.000000 -40.763399 12.317532 -0.212460 -5.289036 -18.422125 -39.581052 8.237277 -0.273066 -0.099649 3.532198 -5.028219 -30.275333 5.747369 -8.921700 -0.000001 -60.981299 -3.045100 2.894271 -3.682052 0.055530 3.270757 -3.917156 1.814590 3.150148 -2.961594 -13.352640 8.947829 0.969274 -0.377949 -0.165543 2.399545 0.000000 0.000000 0.000000 -3.333972 8.779438 -9.150056 -98.145027 -58.524773 43.926405 178.380926 -73.808918 179.841404 10.786891 -5.682335 -0.619074 -0.009023 0.851012 -0.000000 0.000000 0.000000 0.000000 0.000000 0.000000 0.000000 -19.726608 14.416281 4.791993 -1.187583 11.723981 -74.931246 -2.107193 -2.793038 -0.121726 -23.629528 7.732393 -1.768134 0.593450 -0.506543 0.000000 0.000000 0.000000 0.000000 0.000000 0.000000 0.000000 
